<svg xmlns="http://www.w3.org/2000/svg" viewBox="0 0 120 120" fill="none">
  <!-- Rounded dark background -->
  <rect x="4" y="4" width="112" height="112" rx="24" fill="#1C2127"/>
  <rect x="4" y="4" width="112" height="112" rx="24" stroke="#2A3038" stroke-width="1.5"/>

  <!-- House roof -->
  <path d="M60 22L26 48h68L60 22z" stroke="#E8E0D4" stroke-width="3.5" stroke-linecap="round" stroke-linejoin="round"/>

  <!-- House body -->
  <path d="M32 48v38a4 4 0 004 4h48a4 4 0 004-4V48" stroke="#E8E0D4" stroke-width="2.5" stroke-linecap="round" stroke-linejoin="round"/>

  <!-- Door -->
  <rect x="52" y="68" width="16" height="22" rx="2" stroke="#E8E0D4" stroke-width="2" fill="none"/>
  <circle cx="64" cy="80" r="1.5" fill="#C9A96E"/>

  <!-- Sofa -->
  <path d="M38 58h14a2 2 0 012 2v6H36v-6a2 2 0 012-2z" fill="#C9A96E" opacity="0.9"/>
  <path d="M34 62v6a2 2 0 002 2h16a2 2 0 002-2v-6" stroke="#C9A96E" stroke-width="2" stroke-linecap="round"/>

  <!-- Window -->
  <rect x="72" y="56" width="12" height="12" rx="2" stroke="#C9A96E" stroke-width="2"/>
  <line x1="78" y1="56" x2="78" y2="68" stroke="#C9A96E" stroke-width="1.5"/>
  <line x1="72" y1="62" x2="84" y2="62" stroke="#C9A96E" stroke-width="1.5"/>
</svg>
